<svg id="e75r2vpEMWg1" xmlns="http://www.w3.org/2000/svg" xmlns:xlink="http://www.w3.org/1999/xlink" viewBox="0 0 188 30" shape-rendering="geometricPrecision" text-rendering="geometricPrecision">
<style><![CDATA[
#e75r2vpEMWg2 {animation: e75r2vpEMWg2__sz 3000ms linear 1s normal forwards}@keyframes e75r2vpEMWg2__sz { 0% {width: 0px;height: 26px} 16.666667% {width: 114px;height: 26px} 100% {width: 114px;height: 26px}} #e75r2vpEMWg4 {animation: e75r2vpEMWg4_c_o 3000ms linear 1s normal forwards}@keyframes e75r2vpEMWg4_c_o { 0% {opacity: 0} 16.666667% {opacity: 0} 33.333333% {opacity: 1} 100% {opacity: 1}}
]]></style>
<rect id="e75r2vpEMWg2" width="0" height="26" rx="0" ry="0" transform="translate(0 4)" fill="#ff322e"/><path d="M6.5,24.3c-1.6,0-2.8-.3-3.8-1s-1.6-1.6-1.8-2.9l2.8-.7c.1.6.3,1,.6,1.3s.6.6,1,.7.8.2,1.3.2c.7,0,1.2-.1,1.6-.4.3-.3.5-.6.5-.9s-.3-.6-.6-.8-.8-.4-1.5-.5l-.7-.1c-.8-.2-1.6-.4-2.3-.6-.7-.3-1.2-.7-1.7-1.2-.4-.5-.6-1.1-.6-1.9c0-1.2.4-2.1,1.3-2.7s2-1,3.4-1c1.3,0,2.4.3,3.3.9s1.5,1.4,1.7,2.3l-2.8.9c-.1-.6-.4-1-.8-1.3s-.9-.4-1.4-.4-1,.1-1.3.3-.5.5-.5.8c0,.4.2.7.5.9s.8.3,1.3.4l.7.1c.9.2,1.7.4,2.4.6.7.3,1.3.6,1.7,1.1s.6,1.1.6,2c0,1.2-.5,2.2-1.4,2.9-.8.7-2,1-3.5,1Zm12-.3c-.8,0-1.4-.2-1.9-.7s-.7-1.2-.7-2v-6.7h-3v-2.5h3v-3.7h3v3.7h3.3v2.5h-3.3v6.2c0,.5.2.7.7.7h2.3v2.5h-3.4Zm11.4.3c-1.2,0-2.2-.2-3.1-.7s-1.6-1.2-2.1-2.1-.7-2-.7-3.3v-.3c0-1.2.2-2.3.7-3.2s1.2-1.6,2.1-2.1s1.9-.8,3.1-.8s2.2.3,3,.8c.9.5,1.5,1.2,2,2.2.5.9.7,2,.7,3.2v1h-8.7c0,.8.3,1.5.9,2s1.3.8,2.1.8s1.5-.2,1.9-.6.7-.8.9-1.2l2.5,1.3c-.2.4-.6.9-1,1.4s-1,.9-1.7,1.2c-.6.3-1.5.4-2.6.4ZM27,16.7h5.6c-.1-.7-.3-1.2-.8-1.7-.5-.4-1.1-.6-1.9-.6s-1.5.2-1.9.6c-.6.4-.9,1-1,1.7Zm15,7.6c-.8,0-1.6-.1-2.3-.4s-1.2-.7-1.6-1.3-.6-1.3-.6-2.1.2-1.5.6-2c.4-.6.9-1,1.6-1.2.7-.3,1.5-.4,2.4-.4h3.3v-.7c0-.6-.2-1-.5-1.4-.4-.4-.9-.6-1.7-.6s-1.3.2-1.7.5-.6.8-.7,1.3L38,15.1c.2-.6.5-1.2.9-1.7s1-.9,1.7-1.2s1.6-.5,2.6-.5c1.6,0,2.8.4,3.7,1.2s1.4,1.9,1.4,3.4v4.4c0,.5.2.7.7.7h1v2.6h-2c-.6,0-1.1-.1-1.5-.4s-.6-.7-.6-1.2v0h-.5c-.1.2-.2.4-.4.8-.2.3-.6.6-1.1.8s-1.1.3-1.9.3Zm.5-2.4c.8,0,1.5-.2,2.1-.7.5-.5.8-1.1.8-1.9v-.2h-3c-.6,0-1,.1-1.3.4s-.5.6-.5,1s.2.8.5,1.1c.3.2.8.3,1.4.3Zm14.2,2.4c-.9,0-1.8-.2-2.7-.7-.8-.5-1.5-1.2-2-2.1s-.7-2-.7-3.3v-.4c0-1.3.2-2.4.7-3.3s1.2-1.6,2-2.1s1.7-.7,2.7-.7c.7,0,1.3.1,1.8.3s.9.4,1.2.6c.3.3.5.5.7.8h.4v-6.2h3v16.8h-3v-1.4h-.4c-.3.4-.7.9-1.3,1.2-.5.4-1.3.5-2.4.5Zm.9-2.6c.9,0,1.7-.3,2.3-.9s.9-1.5.9-2.6v-.2c0-1.2-.3-2-.9-2.6s-1.4-.9-2.3-.9-1.7.3-2.3.9-.9,1.5-.9,2.6v.2c0,1.2.3,2,.9,2.6s1.4.9,2.3.9ZM69.2,24v-9.4h-3v-2.5h3v-2.2c0-.8.2-1.5.7-1.9.5-.5,1.1-.7,1.9-.7h3.2v2.5h-2.1c-.4,0-.7.2-.7.7v1.7h3.1v2.5h-3.1v9.3h-3Zm12,.3c-.8,0-1.6-.1-2.3-.4s-1.2-.7-1.6-1.3-.6-1.3-.6-2.1.2-1.5.6-2c.4-.6.9-1,1.6-1.2.7-.3,1.5-.4,2.4-.4h3.3v-.7c0-.6-.2-1-.5-1.4-.4-.4-.9-.6-1.7-.6s-1.3.2-1.7.5-.6.8-.7,1.3l-2.8-.9c.2-.6.5-1.2.9-1.7s1-.9,1.7-1.2s1.6-.5,2.6-.5c1.6,0,2.8.4,3.7,1.2s1.4,1.9,1.4,3.4v4.4c0,.5.2.7.7.7h1v2.6h-2c-.6,0-1.1-.1-1.5-.4s-.6-.7-.6-1.2v0h-.5c-.1.2-.2.4-.4.8-.2.3-.6.6-1.1.8-.4.2-1.1.3-1.9.3Zm.5-2.4c.8,0,1.5-.2,2.1-.7.5-.5.8-1.1.8-1.9v-.2h-3c-.6,0-1,.1-1.3.4s-.5.6-.5,1s.2.8.5,1.1c.3.2.8.3,1.4.3Zm14.5,2.4c-1.6,0-2.8-.3-3.8-1s-1.6-1.6-1.8-2.9l2.8-.7c.1.6.3,1,.6,1.3s.6.6,1,.7.8.2,1.3.2c.7,0,1.2-.1,1.6-.4.3-.3.5-.6.5-.9s-.2-.6-.5-.8-.8-.4-1.5-.5l-.7-.1c-.8-.2-1.6-.4-2.3-.6-.7-.3-1.2-.7-1.7-1.2-.4-.5-.6-1.1-.6-1.9c0-1.2.4-2.1,1.3-2.7s2-1,3.4-1c1.3,0,2.4.3,3.3.9s1.5,1.4,1.7,2.3l-2.8.8c-.1-.6-.4-1-.8-1.3s-.9-.4-1.4-.4c-.6,0-1,.1-1.3.3s-.5.5-.5.8c0,.4.2.7.5.9s.8.3,1.3.4l.7.1c.9.2,1.7.4,2.4.6.7.3,1.3.6,1.7,1.1s.6,1.1.6,2c0,1.2-.5,2.2-1.4,2.9-.8.8-2,1.1-3.6,1.1Zm12-.3c-.8,0-1.4-.2-1.9-.7s-.7-1.2-.7-2v-6.7h-3v-2.5h3v-3.7h3v3.7h3.3v2.5h-3.3v6.2c0,.5.2.7.7.7h2.3v2.5h-3.4Z" fill="#f5f5f5"/><path id="e75r2vpEMWg4" d="M120.7,24v-11.9h3v1.6h.4c.2-.4.6-.8,1.1-1.2s1.3-.6,2.4-.6c.9,0,1.7.2,2.4.6s1.2,1,1.6,1.8c.4.7.6,1.6.6,2.6v7.1h-3v-6.9c0-.9-.2-1.6-.7-2-.4-.4-1.1-.7-1.9-.7-.9,0-1.6.3-2.2.9-.5.6-.8,1.5-.8,2.6v6h-2.9Zm20.2.3c-1.2,0-2.2-.2-3.1-.7s-1.6-1.2-2.1-2.1-.7-2-.7-3.3v-.3c0-1.2.2-2.3.7-3.2s1.2-1.6,2.1-2.1s1.9-.8,3.1-.8s2.2.3,3,.8c.9.5,1.5,1.2,2,2.2.5.9.7,2,.7,3.2v1h-8.6c0,.8.3,1.5.9,2s1.3.8,2.1.8s1.5-.2,1.9-.6.7-.8.9-1.2l2.5,1.3c-.2.4-.6.9-1,1.4s-1,.9-1.7,1.2-1.6.4-2.7.4ZM138,16.7h5.6c-.1-.7-.3-1.2-.8-1.7-.5-.4-1.1-.6-1.9-.6s-1.5.2-1.9.6c-.6.4-.9,1-1,1.7ZM150.2,24l-1.7-11.9h3l1.1,9.9h.4l1.5-9.9h4.8L161,22h.4l1.1-9.9h3L163.8,24h-5l-1.5-9.9h-.4L155.4,24h-5.2Zm22.8.3c-1.6,0-2.8-.3-3.8-1s-1.6-1.6-1.8-2.9l2.8-.7c.1.6.3,1,.6,1.3s.6.6,1,.7.8.2,1.3.2c.7,0,1.2-.1,1.6-.4.3-.3.5-.6.5-.9s-.2-.6-.5-.8-.8-.4-1.5-.5l-.7-.1c-.8-.2-1.6-.4-2.3-.6-.7-.3-1.2-.7-1.7-1.2-.4-.5-.6-1.1-.6-1.9c0-1.2.4-2.1,1.3-2.7s2-1,3.4-1c1.3,0,2.4.3,3.3.9s1.5,1.4,1.7,2.3l-2.8.9c-.1-.6-.4-1-.8-1.3s-.9-.4-1.4-.4-1,.1-1.3.3-.5.5-.5.8c0,.4.2.7.5.9s.8.3,1.3.4l.7.1c.9.2,1.7.4,2.4.6.7.3,1.3.6,1.7,1.1s.6,1.1.6,2c0,1.2-.5,2.2-1.4,2.9-.8.7-2,1-3.6,1Z" opacity="0"/></svg>
